<?xml version="1.0" encoding="UTF-8"?>
<svg width="1024" height="1024" version="1.1" viewBox="0 0 1043 1043" xmlns="http://www.w3.org/2000/svg">
 <defs>
  <linearGradient id="linearGradient38222" x1="70.486" x2="347.99" y1="-127.48" y2="112.95" gradientTransform="matrix(1.0193 0 0 1.0203 444.01 418.37)" gradientUnits="userSpaceOnUse">
   <stop stop-color="#00c967" offset="0"/>
   <stop stop-color="#00e396" offset="1"/>
  </linearGradient>
 </defs>
 <circle cx="521.5" cy="521" r="518.44" fill="#1a1a1a" stroke-width=".99416"/>
 <path d="m414.93 776.41 229.9-228.22-19.645-19.487-229.42 228.87-190.04-189.8c-31.061-36.489-25.273-77.258 12.084-110.19l303.55-301.97 109.8 109.14-199.54 198.44 19.166 19.146 199.58-198.56 188.01 187.33c20.46 19.348 29.576 66.991-1.538 96.644l-314.89 314.97zm160.81-240.06 30.74-30.875-34.332-34.471c-26.272-26.378-26.652-27.424-30.302-27.254-3.6502 0.17081-7.2094 3.2582-31.255 27.736-8.7903 8.9484-19.626 19.611-34.175 34.07l30.961 31.148c12.857 12.935 28.979 30.607 33.83 30.607 4.8521 0 8.7573-5.134 34.533-30.962z" fill="url(#linearGradient38222)" stroke-width="1.5922"/>
</svg>
