<?xml version="1.0" encoding="UTF-8" standalone="no"?>
<svg
   width="1024"
   height="1024"
   viewBox="0 0 1042.9827 1042.9827"
   version="1.1"
   id="svg831"
   xmlns:xlink="http://www.w3.org/1999/xlink"
   xmlns="http://www.w3.org/2000/svg"
   xmlns:svg="http://www.w3.org/2000/svg">
  <defs
     id="defs835">
    <linearGradient
       xlink:href="#linearGradient18719"
       id="linearGradient38222"
       x1="70.486031"
       y1="-127.48129"
       x2="347.99164"
       y2="112.94713"
       gradientUnits="userSpaceOnUse"
       gradientTransform="matrix(1.0253485,0,0,1.0263325,443.55416,417.76814)" />
    <linearGradient
       id="linearGradient18719">
      <stop
         style="stop-color:#00c967;stop-opacity:1;"
         offset="0"
         id="stop18715" />
      <stop
         style="stop-color:#00e396;stop-opacity:1"
         offset="1"
         id="stop18717" />
    </linearGradient>
  </defs>
  <circle
     style="display:inline;fill:#1a1a1a;fill-opacity:1;stroke:none;stroke-width:19.2568;stroke-linejoin:round"
     id="path860"
     cx="521.5"
     cy="521"
     r="521.49133" />
  <path
     style="display:inline;fill:url(#linearGradient38222);fill-opacity:1;stroke-width:1.60158"
     d="m 414.30137,777.90867 231.25165,-229.55563 -19.7605,-19.601 -230.77467,230.20572 -191.164,-190.90574 C 172.61124,531.34866 178.43321,490.34006 216.0086,457.21212 L 521.3362,153.47559 631.78989,263.25508 431.07718,462.86011 450.35591,482.11853 651.10702,282.3919 840.21296,470.82 c 20.57997,19.46212 29.7499,67.38481 -1.54704,97.2116 L 521.9278,884.84861 Z M 576.05244,536.4427 606.973,505.38629 572.43909,470.71269 C 546.01265,444.17937 545.6305,443.1273 541.95888,443.2991 c -3.67162,0.17181 -7.25174,3.27729 -31.43853,27.8991 -8.84192,9.00095 -19.74075,19.72553 -34.37618,34.27022 l 31.14315,31.3309 c 12.93327,13.01125 29.14856,30.78688 34.02914,30.78688 4.88057,0 8.80871,-5.16419 34.73598,-31.1435 z"
     id="path38177" />
</svg>
