<?xml version="1.0" encoding="UTF-8" standalone="no"?>
<!-- Created with Inkscape (http://www.inkscape.org/) -->

<svg
   width="141.02292mm"
   height="30.956249mm"
   viewBox="0 0 141.02292 30.956249"
   version="1.1"
   id="svg5"
   xmlns:xlink="http://www.w3.org/1999/xlink"
   xmlns="http://www.w3.org/2000/svg"
   xmlns:svg="http://www.w3.org/2000/svg">
  <defs
     id="defs2">
    <linearGradient
       id="linearGradient18719">
      <stop
         style="stop-color:#00c967;stop-opacity:1;"
         offset="0"
         id="stop18715" />
      <stop
         style="stop-color:#00e396;stop-opacity:1"
         offset="1"
         id="stop18717" />
    </linearGradient>
    <linearGradient
       xlink:href="#linearGradient18719"
       id="linearGradient38222"
       x1="70.486031"
       y1="-127.48129"
       x2="347.99164"
       y2="112.94713"
       gradientUnits="userSpaceOnUse"
       gradientTransform="matrix(0.0406341,0,0,0.0406341,71.135207,121.72048)" />
    <linearGradient
       xlink:href="#linearGradient18719"
       id="linearGradient38222-3"
       x1="70.486031"
       y1="-127.48129"
       x2="347.99164"
       y2="112.94713"
       gradientUnits="userSpaceOnUse"
       gradientTransform="matrix(0.04057433,0,0,0.04084175,12.194552,11.416842)" />
  </defs>
  <path
     d="m 45.790848,25.17796 c 4.102769,0 7.017894,-2.15935 7.017894,-5.80326 0,-3.9948 -3.212036,-4.9935 -6.073177,-5.85724 -2.942117,-0.89073 -3.400979,-1.48455 -3.400979,-2.3483 0,-0.75577 0.674797,-1.43057 2.024392,-1.43057 1.727482,0 2.618214,0.83675 3.26602,2.18635 L 52.268904,9.79258 C 50.892317,7.01241 48.463046,5.52786 45.358978,5.52786 c -3.26602,0 -6.343096,2.10537 -6.343096,5.74927 0,3.61692 2.753173,4.96651 5.560331,5.74928 2.834149,0.78276 3.913825,1.24162 3.913825,2.40228 0,0.72878 -0.512846,1.53853 -2.56423,1.53853 -2.13236,0 -3.293012,-1.05268 -3.967809,-2.61821 l -3.724882,2.15935 c 1.052684,2.78017 3.589922,4.6696 7.557731,4.6696 z"
     id="path2271"
     style="font-weight:800;font-size:26.9919px;line-height:1.25;font-family:Gilroy;-inkscape-font-specification:'Gilroy, Ultra-Bold';letter-spacing:-1.47451px;fill:#ffffff;stroke-width:0.281165" />
  <path
     d="m 65.919826,5.90574 h -7.152853 v 18.89433 h 4.318704 v -5.93821 h 2.834149 c 3.724878,0 6.613018,-2.88814 6.613018,-6.47806 0,-3.58992 -2.88814,-6.47806 -6.613018,-6.47806 z m 0,8.90733 H 63.085677 V 9.95453 h 2.834149 c 1.322608,0 2.294308,1.05268 2.294308,2.42927 0,1.37659 -0.9717,2.42927 -2.294308,2.42927 z"
     id="path2273"
     style="font-weight:800;font-size:26.9919px;line-height:1.25;font-family:Gilroy;-inkscape-font-specification:'Gilroy, Ultra-Bold';letter-spacing:-1.47451px;fill:#ffffff;stroke-width:0.281165" />
  <path
     d="m 90.502444,24.80007 h 4.72358 L 88.801954,5.90574 h -5.50635 l -6.42407,18.89433 h 4.72358 l 0.94472,-2.96911 h 7.01789 z m -6.667,-7.01789 2.21334,-6.93692 2.21333,6.93692 z"
     id="path2275"
     style="font-weight:800;font-size:26.9919px;line-height:1.25;font-family:Gilroy;-inkscape-font-specification:'Gilroy, Ultra-Bold';letter-spacing:-1.47451px;fill:#ffffff;stroke-width:0.281165" />
  <path
     d="m 110.57742,24.80007 h 4.6426 l -4.02179,-6.93691 c 2.07838,-1.05269 3.48195,-3.15806 3.48195,-5.47936 0,-3.58992 -2.88813,-6.47806 -6.47805,-6.47806 h -7.55773 v 18.89433 h 4.3187 v -6.20813 h 2.05139 z M 104.9631,9.95453 h 3.23903 c 1.18764,0 2.15935,1.05268 2.15935,2.42927 0,1.37659 -0.97171,2.42927 -2.15935,2.42927 h -3.23903 z"
     id="path2277"
     style="font-weight:800;font-size:26.9919px;line-height:1.25;font-family:Gilroy;-inkscape-font-specification:'Gilroy, Ultra-Bold';letter-spacing:-1.47451px;fill:#ffffff;stroke-width:0.281165" />
  <path
     d="m 125.36202,20.64332 v -3.34699 h 6.74797 v -4.10277 h -6.74797 V 10.0625 h 7.42277 V 5.90574 h -11.74147 v 18.89433 h 11.87643 v -4.15675 z"
     id="path2279"
     style="font-weight:800;font-size:26.9919px;line-height:1.25;font-family:Gilroy;-inkscape-font-specification:'Gilroy, Ultra-Bold';letter-spacing:-1.47451px;fill:#ffffff;stroke-width:0.281165" />
  <path
     style="display:inline;fill:url(#linearGradient38222-3);fill-opacity:1;stroke-width:0.0635546"
     d="m 11.036992,25.748222 9.15092,-9.1349 -0.78195,-0.78 -9.13205,9.16077 -7.5646001,-7.59688 c -1.23631,-1.46056 -1.00592,-3.09245 0.48098,-4.41074 L 15.272492,0.89961224 l 4.37079,4.36854996 -7.94245,7.9430598 0.76288,0.76637 7.94398,-7.9478998 7.48316,7.4982898 c 0.81437,0.77447 1.17724,2.6815 -0.0612,3.86842 l -12.53373,12.60738 z m 6.40069,-9.60886 1.22357,-1.23586 -1.36655,-1.37979 c -1.04573,-1.05587 -1.06085,-1.09773 -1.20614,-1.0909 -0.14529,0.007 -0.28696,0.13042 -1.24407,1.11022 -0.34988,0.35818 -0.78116,0.78495 -1.36031,1.36374 l 1.23238,1.24678 c 0.51178,0.51777 1.15344,1.22513 1.34658,1.22513 0.19312,0 0.34857,-0.2055 1.37454,-1.23932 z"
     id="path38177-6" />
</svg>
