<?xml version="1.0" encoding="UTF-8"?>
<svg width="150" height="58" version="1.1" viewBox="0 0 39.687 15.346" xmlns="http://www.w3.org/2000/svg">
 <defs>
  <linearGradient id="linearGradient38222-3" x1="70.486" x2="347.99" y1="-127.48" y2="112.95" gradientTransform="matrix(.012128 0 0 .012253 3.4717 6.2638)" gradientUnits="userSpaceOnUse">
   <stop stop-color="#00c967" offset="0"/>
   <stop stop-color="#00e396" offset="1"/>
  </linearGradient>
 </defs>
 <g transform="matrix(.2989 0 0 .3 -.70258 2.8386)" fill="#fff" stroke-width=".28116">
  <path d="m45.791 25.178c4.1028 0 7.0179-2.1594 7.0179-5.8033 0-3.9948-3.212-4.9935-6.0732-5.8572-2.9421-0.89073-3.401-1.4846-3.401-2.3483 0-0.75577 0.6748-1.4306 2.0244-1.4306 1.7275 0 2.6182 0.83675 3.266 2.1864l3.6439-2.1324c-1.3766-2.7802-3.8059-4.2647-6.9099-4.2647-3.266 0-6.3431 2.1054-6.3431 5.7493 0 3.6169 2.7532 4.9665 5.5603 5.7493 2.8341 0.78276 3.9138 1.2416 3.9138 2.4023 0 0.72878-0.51285 1.5385-2.5642 1.5385-2.1324 0-3.293-1.0527-3.9678-2.6182l-3.7249 2.1594c1.0527 2.7802 3.5899 4.6696 7.5577 4.6696z"/>
  <path d="m65.92 5.9057h-7.1529v18.894h4.3187v-5.9382h2.8341c3.7249 0 6.613-2.8881 6.613-6.4781s-2.8881-6.4781-6.613-6.4781zm0 8.9073h-2.8341v-4.8585h2.8341c1.3226 0 2.2943 1.0527 2.2943 2.4293s-0.9717 2.4293-2.2943 2.4293z"/>
  <path d="m90.502 24.8h4.7236l-6.4241-18.894h-5.5064l-6.4241 18.894h4.7236l0.94472-2.9691h7.0179zm-6.667-7.0179 2.2133-6.9369 2.2133 6.9369z"/>
  <path d="m110.58 24.8h4.6426l-4.0218-6.9369c2.0784-1.0527 3.482-3.1581 3.482-5.4794 0-3.5899-2.8881-6.4781-6.478-6.4781h-7.5577v18.894h4.3187v-6.2081h2.0514zm-5.6143-14.846h3.239c1.1876 0 2.1594 1.0527 2.1594 2.4293s-0.97171 2.4293-2.1594 2.4293h-3.239z"/>
  <path d="m125.36 20.643v-3.347h6.748v-4.1028h-6.748v-3.1311h7.4228v-4.1568h-11.741v18.894h11.876v-4.1568z"/>
 </g>
 <path d="m3.1256 10.563 2.7352-2.7405-0.23373-0.234-2.7296 2.7483-2.2611-2.2791c-0.36953-0.43819-0.30067-0.92773 0.14377-1.3232l3.6114-3.6261 1.3064 1.3106-2.374 2.383 0.22803 0.22991 2.3745-2.3844 2.2368 2.2495c0.24342 0.23234 0.35187 0.80446-0.018293 1.1605l-3.7465 3.7822zm1.9132-2.8827 0.36574-0.37077-0.40848-0.41395c-0.31256-0.31677-0.31708-0.32931-0.36051-0.32727-0.043433 0.0020796-0.085771 0.039127-0.37187 0.33306-0.10458 0.10746-0.23349 0.23549-0.4066 0.40912l0.36837 0.37404c0.15297 0.15533 0.34476 0.36754 0.4025 0.36754 0.05772 0 0.10419-0.061656 0.41084-0.37179z" fill="url(#linearGradient38222-3)" stroke-width=".019032"/>
</svg>
