<?xml version="1.0" encoding="UTF-8"?>
<svg width="141.02mm" height="30.956mm" version="1.1" viewBox="0 0 141.02 30.956" xmlns="http://www.w3.org/2000/svg" xmlns:xlink="http://www.w3.org/1999/xlink">
 <defs>
  <linearGradient id="linearGradient38222-3" x1="70.486" x2="347.99" y1="-127.48" y2="112.95" gradientTransform="matrix(.040574 0 0 .040842 12.195 11.417)" gradientUnits="userSpaceOnUse">
   <stop stop-color="#00c967" offset="0"/>
   <stop stop-color="#00e396" offset="1"/>
  </linearGradient>
 </defs>
 <g fill="#fff" stroke-width=".28116">
  <path d="m45.791 25.178c4.1028 0 7.0179-2.1594 7.0179-5.8033 0-3.9948-3.212-4.9935-6.0732-5.8572-2.9421-0.89073-3.401-1.4846-3.401-2.3483 0-0.75577 0.6748-1.4306 2.0244-1.4306 1.7275 0 2.6182 0.83675 3.266 2.1864l3.6439-2.1324c-1.3766-2.7802-3.8059-4.2647-6.9099-4.2647-3.266 0-6.3431 2.1054-6.3431 5.7493 0 3.6169 2.7532 4.9665 5.5603 5.7493 2.8341 0.78276 3.9138 1.2416 3.9138 2.4023 0 0.72878-0.51285 1.5385-2.5642 1.5385-2.1324 0-3.293-1.0527-3.9678-2.6182l-3.7249 2.1594c1.0527 2.7802 3.5899 4.6696 7.5577 4.6696z"/>
  <path d="m65.92 5.9057h-7.1529v18.894h4.3187v-5.9382h2.8341c3.7249 0 6.613-2.8881 6.613-6.4781s-2.8881-6.4781-6.613-6.4781zm0 8.9073h-2.8341v-4.8585h2.8341c1.3226 0 2.2943 1.0527 2.2943 2.4293s-0.9717 2.4293-2.2943 2.4293z"/>
  <path d="m90.502 24.8h4.7236l-6.4241-18.894h-5.5064l-6.4241 18.894h4.7236l0.94472-2.9691h7.0179zm-6.667-7.0179 2.2133-6.9369 2.2133 6.9369z"/>
  <path d="m110.58 24.8h4.6426l-4.0218-6.9369c2.0784-1.0527 3.482-3.1581 3.482-5.4794 0-3.5899-2.8881-6.4781-6.478-6.4781h-7.5577v18.894h4.3187v-6.2081h2.0514zm-5.6143-14.846h3.239c1.1876 0 2.1594 1.0527 2.1594 2.4293s-0.97171 2.4293-2.1594 2.4293h-3.239z"/>
  <path d="m125.36 20.643v-3.347h6.748v-4.1028h-6.748v-3.1311h7.4228v-4.1568h-11.741v18.894h11.876v-4.1568z"/>
 </g>
 <path d="m11.037 25.748 9.1509-9.1349-0.78195-0.78-9.132 9.1608-7.5646-7.5969c-1.2363-1.4606-1.0059-3.0924 0.48098-4.4107l12.082-12.087 4.3708 4.3685-7.9424 7.9431 0.76288 0.76637 7.944-7.9479 7.4832 7.4983c0.81437 0.77447 1.1772 2.6815-0.0612 3.8684l-12.534 12.607zm6.4007-9.6089 1.2236-1.2359-1.3666-1.3798c-1.0457-1.0559-1.0608-1.0977-1.2061-1.0909-0.14529 7e-3 -0.28696 0.13042-1.2441 1.1102-0.34988 0.35818-0.78116 0.78495-1.3603 1.3637l1.2324 1.2468c0.51178 0.51777 1.1534 1.2251 1.3466 1.2251 0.19312 0 0.34857-0.2055 1.3745-1.2393z" fill="url(#linearGradient38222-3)" stroke-width=".063555"/>
</svg>
